<?xml version="1.0" encoding="UTF-8" standalone="no"?>
<svg
   xmlns:dc="http://purl.org/dc/elements/1.1/"
   xmlns:cc="http://creativecommons.org/ns#"
   xmlns:rdf="http://www.w3.org/1999/02/22-rdf-syntax-ns#"
   xmlns:svg="http://www.w3.org/2000/svg"
   xmlns="http://www.w3.org/2000/svg"
   viewBox="0 0 214.14667 233.86667"
   height="233.86667"
   width="214.14667"
   xml:space="preserve"
   id="svg2"
   version="1.1"><metadata
     id="metadata8"><rdf:RDF><cc:Work
         rdf:about=""><dc:format>image/svg+xml</dc:format><dc:type
           rdf:resource="http://purl.org/dc/dcmitype/StillImage" /></cc:Work></rdf:RDF></metadata><defs
     id="defs6" /><g
     transform="matrix(1.3333333,0,0,-1.3333333,0,233.86667)"
     id="g10"><g
       transform="scale(0.1)"
       id="g12"><path
         id="path14"
         style="fill:#fff;fill-opacity:1;fill-rule:nonzero;stroke:none"
         d="m 803.051,1059.76 c -141.559,0 -256.731,-115.139 -256.731,-256.701 0,-141.559 115.172,-256.727 256.731,-256.727 141.554,0 256.699,115.168 256.699,256.727 0,141.562 -115.145,256.701 -256.699,256.701" /><path
         id="path16"
         style="fill:#fff;fill-opacity:1;fill-rule:nonzero;stroke:none"
         d="m 1606.1,803.113 v 19.696 h -0.5 c -5.84,240.991 -117.87,455.551 -290.98,598.951 L 1136.94,1319.18 C 1305.97,1209.45 1418.1,1019.16 1418.1,803.055 1418.1,463.91 1142.19,188 803.051,188 463.902,188 187.996,463.91 187.996,803.055 c 0,320.515 246.484,584.415 559.84,612.445 v -153.15 l 425.814,245.84 -425.814,245.84 V 1604 C 330.105,1575.6 -0.00390625,1227.98 -0.00390625,803.055 -0.00390625,366.172 348.934,11.0313 783.285,0.5 V 0 H 1606.1 v 802.988 c 0,0.02 0,0.043 0,0.067 0,0.019 0,0.039 0,0.058" /></g></g></svg>