<?xml version="1.0" encoding="utf-8"?>
<!-- Generator: Adobe Illustrator 23.0.4, SVG Export Plug-In . SVG Version: 6.00 Build 0)  -->
<svg version="1.1" id="Layer_1" xmlns="http://www.w3.org/2000/svg" xmlns:xlink="http://www.w3.org/1999/xlink" x="0px" y="0px"
	 viewBox="0 0 1366 768" style="enable-background:new 0 0 1366 768;" xml:space="preserve">
<style type="text/css">
	.st0{fill:#61DAFB;}
	.st1{fill:#FFFFFF;}
</style>
<g>
	<path class="st0" d="M1087.7,384.5c0-53.6-67.2-104.4-170.1-136c23.8-104.9,13.2-188.4-33.3-215.2c-10.7-6.3-23.3-9.2-37-9.2V61
		c7.6,0,13.7,1.5,18.8,4.3c22.4,12.9,32.2,61.9,24.6,124.9c-1.8,15.5-4.8,31.8-8.4,48.5c-32.3-7.9-67.6-14-104.8-18
		c-22.3-30.5-45.4-58.2-68.6-82.5c53.8-50,104.3-77.4,138.6-77.4V24c-45.4,0-104.8,32.3-164.8,88.4
		c-60.1-55.8-119.5-87.8-164.8-87.8v36.8c34.2,0,84.8,27.2,138.6,76.9c-23.1,24.3-46.2,51.8-68.1,82.3c-37.3,4-72.6,10.1-104.9,18.1
		c-3.8-16.5-6.6-32.5-8.6-47.8c-7.8-63,1.8-112,24.1-125.1c5-3,11.4-4.3,19-4.3V24.8c-13.9,0-26.4,3-37.3,9.2
		c-46.4,26.7-56.8,110.1-32.8,214.7c-102.6,31.7-169.5,82.3-169.5,135.8c0,53.6,67.2,104.4,170.1,136
		c-23.8,104.9-13.2,188.4,33.3,215.2c10.7,6.3,23.3,9.2,37.1,9.2c45.4,0,104.8-32.3,164.8-88.4c60.1,55.8,119.5,87.8,164.8,87.8
		c13.9,0,26.4-3,37.3-9.2c46.4-26.7,56.8-110.1,32.8-214.7C1020.9,488.8,1087.7,438,1087.7,384.5L1087.7,384.5z M872.9,274.5
		c-6.1,21.3-13.7,43.2-22.3,65.2c-6.8-13.2-13.9-26.4-21.6-39.6c-7.6-13.2-15.7-26.1-23.8-38.6C828.7,264.9,851.3,269.2,872.9,274.5
		L872.9,274.5z M797.3,450.2c-12.9,22.3-26.1,43.4-39.8,63c-24.6,2.1-49.5,3.3-74.6,3.3c-24.9,0-49.8-1.2-74.2-3.1
		c-13.7-19.6-27.1-40.6-39.9-62.7c-12.5-21.6-23.9-43.6-34.3-65.7c10.2-22.1,21.8-44.2,34.2-65.8c12.9-22.3,26.1-43.4,39.8-63
		c24.6-2.1,49.5-3.3,74.6-3.3c24.9,0,49.8,1.2,74.2,3.1c13.7,19.6,27.1,40.6,39.9,62.7c12.5,21.6,23.9,43.6,34.3,65.7
		C821.1,406.5,809.7,428.6,797.3,450.2L797.3,450.2z M850.6,428.8c8.9,22.1,16.5,44.2,22.8,65.7c-21.6,5.3-44.4,9.7-68,13.2
		c8.1-12.7,16.2-25.7,23.8-39.1C836.8,455.3,843.9,442,850.6,428.8L850.6,428.8z M683.3,604.8C668,589,652.6,571.3,637.5,552
		c14.9,0.7,30,1.2,45.4,1.2c15.5,0,30.9-0.3,45.9-1.2C713.9,571.3,698.5,589,683.3,604.8z M560.6,507.6c-23.4-3.5-46-7.8-67.6-13
		c6.1-21.3,13.7-43.2,22.3-65.2c6.8,13.2,13.9,26.4,21.6,39.6C544.6,482.2,552.5,495.1,560.6,507.6z M682.5,164.3
		c15.3,15.8,30.7,33.5,45.9,52.8c-14.8-0.7-30-1.2-45.4-1.2c-15.5,0-30.9,0.3-45.9,1.2C652,197.8,667.3,180.1,682.5,164.3z
		 M560.4,261.4c-8.1,12.7-16.2,25.7-23.8,39.1c-7.6,13.2-14.7,26.4-21.5,39.6c-8.9-22.1-16.5-44.2-22.8-65.7
		C514,269.4,536.8,264.9,560.4,261.4L560.4,261.4z M411.1,468c-58.4-24.9-96.2-57.6-96.2-83.5c0-25.9,37.8-58.7,96.2-83.5
		c14.2-6.1,29.7-11.5,45.7-16.7c9.4,32.3,21.8,66,37.1,100.5c-15.2,34.3-27.4,67.8-36.6,100C440.9,479.7,425.4,474.1,411.1,468
		L411.1,468z M499.8,703.8c-22.4-12.9-32.2-61.9-24.6-124.9c1.8-15.5,4.8-31.8,8.4-48.5c32.3,7.9,67.6,14,104.8,18
		c22.3,30.5,45.4,58.2,68.6,82.5c-53.8,50-104.3,77.4-138.6,77.4C511.1,708.1,504.8,706.6,499.8,703.8L499.8,703.8z M891.2,578.1
		c7.8,63-1.8,112-24.1,125.1c-5,3-11.4,4.3-19,4.3c-34.2,0-84.8-27.2-138.6-76.9c23.1-24.3,46.2-51.8,68.1-82.3
		c37.3-4,72.6-10.1,104.9-18.1C886.4,546.7,889.4,562.7,891.2,578.1z M954.8,468c-14.2,6.1-29.7,11.6-45.7,16.7
		c-9.4-32.3-21.8-66-37.1-100.5c15.2-34.3,27.4-67.8,36.6-100c16.3,5.1,31.8,10.7,46.4,16.8c58.4,24.9,96.2,57.6,96.2,83.5
		C1050.9,410.4,1013.2,443.3,954.8,468L954.8,468z"/>
	<circle class="st0" cx="682.8" cy="384.5" r="75.4"/>
	<path class="st0" d="M847.2,24.2"/>
</g>
<g id="g10" transform="matrix(1.3333333,0,0,-1.3333333,0,233.86667)">
	<g id="g12" transform="scale(0.1)">
		<path id="path14" class="st1" d="M5122.5-1044.7c-60.8,0-110.3-49.5-110.3-110.3c0-60.8,49.5-110.3,110.3-110.3
			c60.8,0,110.3,49.5,110.3,110.3C5232.8-1094.2,5183.3-1044.7,5122.5-1044.7"/>
		<path id="path16" class="st1" d="M5467.5-1155v8.5h-0.2c-2.5,103.5-50.6,195.7-125,257.3l-76.3-44.1
			c72.6-47.1,120.8-128.9,120.8-221.7c0-145.7-118.5-264.2-264.2-264.2c-145.7,0-264.2,118.5-264.2,264.2
			c0,137.7,105.9,251.1,240.5,263.1v-65.8l182.9,105.6l-182.9,105.6v-64.5c-179.5-12.2-321.3-161.5-321.3-344.1
			c0-187.7,149.9-340.3,336.5-344.8v-0.2h353.5V-1155C5467.5-1155,5467.5-1155,5467.5-1155C5467.5-1155,5467.5-1155,5467.5-1155"/>
	</g>
</g>
</svg>
